{"title":"Will 2011 DVDRiP AC3 XViD - INSPiRAL","uid":7057768,"size":1490357190,"categoryP":"video","categoryS":"movies","magnet":"?xt=urn:btih:f78d26f843f193dc86b7a036195b1ffcdf7f6c79&amp;dn=Will+2011+DVDRiP+AC3+XViD+-+INSPiRAL&amp;tr=udp%3A%2F%2Ftracker.openbittorrent.com%3A80&amp;tr=udp%3A%2F%2Fopen.demonii.com%3A1337&amp;tr=udp%3A%2F%2Ftracker.coppersurfer.tk%3A6969&amp;tr=udp%3A%2F%2Fexodus.desync.com%3A6969","seeders":2,"leechers":0,"uploader":"HeroMaster","files":-1,"time":1330209274,"description":"Will 2011 DVDRiP AC3 XViD - INSPiRAL\n\nIMDB: \n &lt;a href=&quot;\nhttp://www.imdb.com/title/tt1636844/&quot; rel=&quot;nofollow&quot; target=&quot;_NEW&quot;&gt;\nhttp://www.imdb.com/title/tt1636844/&lt;/a&gt;\n\n\nSOURCES:\n\nVIDEO - LEGEND SORS THANKS\nAUDIO - LEGEND SORS THANKS\nSUBS  - None Add\n\nSTATS:\n\nVideo\nID                               : 0\nFormat                           : MPEG-4 Visual\nFormat profile                   : Advanced Simple@L5\nFormat settings, BVOP            : 2\nFormat settings, QPel            : No\nFormat settings, GMC             : No warppoints\nFormat settings, Matrix          : Default (MPEG)\nMuxing mode                      : Packed bitstream\nCodec ID                         : XVID\nCodec ID/Hint                    : XviD\nDuration                         : 1h 37mn\nBit rate                         : 1 544 Kbps\nWidth                            : 720 pixels\nHeight                           : 304 pixels\nDisplay aspect ratio             : 2.35:1\nFrame rate                       : 25.000 fps\nColor space                      : YUV\nChroma subsampling               : 4:2:0\nBit depth                        : 8 bits\nScan type                        : Progressive\nCompression mode                 : Lossy\nBits/(Pixel*Frame)               : 0.282\nStream size                      : 1.05 GiB (77%)\nWriting library                  : XviD 64\n\nAudio\nID                               : 1\nFormat                           : AC-3\nFormat/Info                      : Audio Coding 3\nMode extension                   : CM (complete main)\nCodec ID                         : 2000\nDuration                         : 1h 37mn\nBit rate mode                    : Constant\nBit rate                         : 448 Kbps\nChannel(s)                       : 6 channels\nChannel positions                : Front: L C R, Side: L R, LFE\nSampling rate                    : 48.0 KHz\nBit depth                        : 16 bits\nCompression mode                 : Lossy\nStream size                      : 313 MiB (22%)\nAlignment                        : Aligned on interleaves\nInterleave, duration             : 40 ms (1.00 video frame)\nInterleave, preload duration     : 512 ms\n\n\nNOTES:\n\nMany thanks legend for sending the vobs  ....vobs were nice but have some issues...looked a little washed and of course\nneeds a crop and resize.\nFixed the issues and gave the video some lovin and now looks alot better.\nAudio just a simple strip and remux to our encode\n\n\nPoster:\n\n &lt;a href=&quot;\nhttp://i.imgur.com/GtbYA.jpg&quot; rel=&quot;nofollow&quot; target=&quot;_NEW&quot;&gt;\nhttp://i.imgur.com/GtbYA.jpg&lt;/a&gt;\n\n\nScreens:\n\n &lt;a href=&quot;\nhttp://i.imgur.com/v2wvC.png&quot; rel=&quot;nofollow&quot; target=&quot;_NEW&quot;&gt;\nhttp://i.imgur.com/v2wvC.png&lt;/a&gt;\n\n &lt;a href=&quot;\nhttp://i.imgur.com/WkQQz.png&quot; rel=&quot;nofollow&quot; target=&quot;_NEW&quot;&gt;\nhttp://i.imgur.com/WkQQz.png&lt;/a&gt;\n\n &lt;a href=&quot;\nhttp://i.imgur.com/BZ5nS.png&quot; rel=&quot;nofollow&quot; target=&quot;_NEW&quot;&gt;\nhttp://i.imgur.com/BZ5nS.png&lt;/a&gt;\n\n\nENJOY!","torrent":{"xt":"urn:btih:f78d26f843f193dc86b7a036195b1ffcdf7f6c79","amp;dn":"Will+2011+DVDRiP+AC3+XViD+-+INSPiRAL","amp;tr":["udp%3A%2F%2Ftracker.openbittorrent.com%3A80","udp%3A%2F%2Fopen.demonii.com%3A1337","udp%3A%2F%2Ftracker.coppersurfer.tk%3A6969","udp%3A%2F%2Fexodus.desync.com%3A6969"],"infoHash":"f78d26f843f193dc86b7a036195b1ffcdf7f6c79","infoHashBuffer":{"type":"Buffer","data":[247,141,38,248,67,241,147,220,134,183,160,54,25,91,31,252,223,127,108,121]},"announce":[],"urlList":[]}}